<?xml version="1.0" encoding="utf-8"?>
<!-- Generator: Adobe Illustrator 21.0.0, SVG Export Plug-In . SVG Version: 6.00 Build 0)  -->
<svg version="1.1" id="Layer_1" xmlns="http://www.w3.org/2000/svg" xmlns:xlink="http://www.w3.org/1999/xlink" x="0px" y="0px"
	 viewBox="0 0 126.92 177.88" enable-background="new 0 0 126.92 177.88" xml:space="preserve">
<g>
	<path fill="#0033A0" d="M126.92,114.53c0,34.99-28.41,63.35-63.46,63.35S0,149.52,0,114.53C0,69.75,54.05,30.27,63.46,0
		C71.66,30.98,126.92,67.61,126.92,114.53z"/>
	<g>
		<path fill="#FFFFFF" d="M63.36,14.89c4.25,10.15,13.41,20.97,23.03,32.33c16.28,19.23,34.73,41.03,34.73,65.33
			c0,15.92-5.89,30.81-16.59,41.95c-10.79,11.23-25.38,17.41-41.08,17.41c-30.06,0-58.48-28.61-58.48-58.88
			c0-23.51,18.86-46.2,35.51-66.22C49.91,35.48,58.89,24.68,63.36,14.89 M63.46,9.78C55.09,36.72,3.22,73.18,3.22,113.04
			c0,31.14,29.05,60.64,60.24,60.64c33.69,0,59.42-27.5,59.42-61.12C122.88,70.8,70.76,37.35,63.46,9.78L63.46,9.78z"/>
	</g>
	<path fill="none" stroke="#BE1E2D" stroke-width="0.4398" stroke-miterlimit="10" d="M63.46,0"/>
	<path fill="#FFFFFF" d="M4.94,114.31c25.49-6.56,94.64-5.63,116.45,0.8c0,34.75-30.92,58.57-57.93,58.57S4.94,144.38,4.94,114.31z"
		/>
	<path fill="none" stroke="#0033A0" stroke-width="2.639" stroke-linecap="round" stroke-miterlimit="10" d="M3.68,125.21
		c2.22-2.66,13.35-12.46,16.35-14.27"/>
	<path fill="none" stroke="#0033A0" stroke-width="2.639" stroke-linecap="round" stroke-miterlimit="10" d="M7.63,136.47
		c3.56-4.12,26.01-25.04,29.84-27.9"/>
	<path fill="none" stroke="#0033A0" stroke-width="2.639" stroke-linecap="round" stroke-miterlimit="10" d="M17.02,150.74
		c6.6-12.62,32.66-38.81,41.03-42.89"/>
	<path fill="none" stroke="#0033A0" stroke-width="2.639" stroke-linecap="round" stroke-miterlimit="10" d="M30.51,163.05
		c3.95-11.59,23.06-37.75,33.22-41.58"/>
	<path fill="none" stroke="#0033A0" stroke-width="2.639" stroke-miterlimit="10" d="M46.93,171.69
		c4.1-10.91,12.09-21.75,17.66-26.28"/>
	<line fill="none" stroke="#0033A0" stroke-width="2.639" stroke-miterlimit="10" x1="63.79" y1="109.83" x2="63.79" y2="173.68"/>
	<path fill="none" stroke="#0033A0" stroke-width="2.639" stroke-linecap="round" stroke-miterlimit="10" d="M64.6,115.19
		c6.04-1.63,49.67,2.95,57.75,5.73"/>
	<path fill="none" stroke="#0033A0" stroke-width="2.639" stroke-linecap="round" stroke-miterlimit="10" d="M63.79,123.46
		c7.55-0.84,50.83,4.14,56.84,6"/>
	<path fill="none" stroke="#0033A0" stroke-width="2.639" stroke-linecap="round" stroke-miterlimit="10" d="M63.73,135.27
		c6.5-1.51,46.63,1.57,53.25,4.13"/>
	<path fill="none" stroke="#0033A0" stroke-width="2.639" stroke-linecap="round" stroke-miterlimit="10" d="M63.73,146.15
		c3.77-0.62,39.9,1.81,47.26,4.6"/>
	<path fill="none" stroke="#0033A0" stroke-width="2.639" stroke-linecap="round" stroke-miterlimit="10" d="M63.79,160.63
		c6.97-1.16,26.14-0.26,33.5,2.41"/>
</g>
<g>
</g>
<g>
</g>
<g>
</g>
<g>
</g>
<g>
</g>
<g>
</g>
</svg>
