<?xml version="1.0" encoding="utf-8"?>
<!-- Generator: Adobe Illustrator 23.0.1, SVG Export Plug-In . SVG Version: 6.00 Build 0)  -->
<svg version="1.1" xmlns="http://www.w3.org/2000/svg" xmlns:xlink="http://www.w3.org/1999/xlink" x="0px" y="0px"
	 viewBox="0 0 506.08 133.3" style="enable-background:new 0 0 506.08 133.3;" xml:space="preserve">
<style type="text/css">
	.st0{fill:#0033A1;}
</style>
<g id="Guides">
</g>
<g id="Logo">
</g>
<g id="Fusion">
	<g>
		<path class="st0" d="M124.13,66.65c0,31.73-25.72,57.44-57.44,57.44S9.24,98.38,9.24,66.65S34.96,9.21,66.69,9.21
			S124.13,34.93,124.13,66.65z M66.66,12.15c-30.05,0-54.42,24.36-54.42,54.42s24.36,54.42,54.42,54.42s54.42-24.36,54.42-54.42
			S96.71,12.15,66.66,12.15z"/>
		<rect x="65.55" class="st0" width="2.11" height="8.37"/>
		<rect x="124.94" y="65.69" class="st0" width="8.26" height="2.05"/>
		<rect x="65.59" y="125.06" class="st0" width="2.07" height="8.25"/>
		<rect y="65.69" class="st0" width="8.25" height="2.08"/>
		<path class="st0" d="M59.42,17.78v36.34h-9.96l9.6,13.04h-9.6L38.02,54.17H27.17c-0.87,2.79-2.13,10.14-1.84,12.98h-8
			C16.81,46.02,31.98,22.05,59.42,17.78z M30.85,45.96h20.63v-17.9C43.51,31.03,34.23,39.15,30.85,45.96z"/>
		<path class="st0" d="M66.35,46.64h1.52v6.25c-0.69-0.33-1.83,0.03-1.83,0.82s1.13,1.46,1.83,1.18v0.93
			c-0.64-0.26-1.83,0.08-1.83,0.82s1.18,1.31,1.83,0.9v4.66h-1.52v-3.68c-0.69-0.05-1.78-0.8-1.78-1.83c0-0.75,0.33-1.29,0.78-1.39
			c-0.57-0.31-0.78-0.72-0.78-1.49c0-0.93,0.82-2.06,1.8-2.08L66.35,46.64z"/>
		<path class="st0" d="M109.33,42.05l-1.7,5.09c1.11,0.45,4.94,3.14,6.01,4.52c0.98,2.04,2.72,11.3,2.19,15.49H73.5V17.78
			C90.53,19.93,104.1,31.94,109.33,42.05z M80.91,51.02v9.15h26.58c-0.53-2.93-2.4-7.53-6.96-9.15H80.91z M80.91,27.87v15.76h18.27
			V41.2C95.62,36.14,86.67,29.36,80.91,27.87z"/>
		<path class="st0" d="M112.61,84.38c-1.94,5.87-8.88,15.9-14.29,19.97H86.9V84.38H112.61z M93.24,90.67v7.26h4.9
			c1.69-1.7,4.76-5.69,5.22-7.26H93.24z"/>
		<path class="st0" d="M81.74,74.11v11.31H73.5v-4.18H27.92c7.56,20.18,30.82,32.39,53.82,23.93v8.37
			c-29.29,9.88-59.2-10.13-63.77-39.43H81.74z"/>
	</g>
	<g>
		<path class="st0" d="M244.93,46.92c-0.37,0.74-0.99,1.71-1.87,2.9c-0.88,1.19-1.8,2.37-2.78,3.54c-0.98,1.17-1.94,2.18-2.86,3.02
			c-0.93,0.85-1.6,1.27-2.03,1.27h-24.5l-4.53,12.49l7.56-7.32h18.38l-11.38,10.74h-15.83l-5.65,15.51h-15.19l15.35-42.16H244.93z"
			/>
		<path class="st0" d="M241.12,64.58l6.28-17.66h15.03c-1.86,5.41-3.29,9.61-4.3,12.61c-1.01,3-1.75,5.24-2.23,6.72
			c-0.48,1.49-0.77,2.43-0.87,2.82c-0.11,0.4-0.16,0.68-0.16,0.84c-0.27,1.06-0.4,1.91-0.4,2.55c0,1.86,0.45,3.3,1.35,4.34
			c0.9,1.03,2.09,1.55,3.58,1.55h3.9c1.27,0,2.45-0.26,3.54-0.8c1.09-0.53,2.05-1.19,2.9-1.99c0.85-0.79,1.59-1.64,2.23-2.55
			c0.64-0.9,1.14-1.72,1.51-2.47l8.59-23.63h15.11l-7.16,19.65c-1.33,3.66-2.68,6.88-4.06,9.66c-1.38,2.78-2.94,5.13-4.69,7.04
			c-1.75,1.91-3.77,3.35-6.05,4.34c-2.28,0.98-5.01,1.47-8.19,1.47h-9.31c-3.71,0-6.8-0.21-9.27-0.64c-2.47-0.42-4.44-1.1-5.93-2.03
			c-1.49-0.93-2.55-2.13-3.18-3.62c-0.64-1.48-0.95-3.29-0.95-5.41c0-0.58,0.04-1.19,0.12-1.83c0.08-0.64,0.17-1.32,0.28-2.07
			c0.26-1.38,0.6-2.76,0.99-4.14C240.2,67.98,240.64,66.38,241.12,64.58z"/>
		<path class="st0" d="M324.08,75.72v-0.48c0-0.42-0.08-0.86-0.24-1.31c-0.16-0.45-0.45-0.68-0.88-0.68h-15.91
			c-1.59,0-3.02-0.38-4.3-1.15c-1.27-0.77-2.37-1.75-3.3-2.94c-0.93-1.19-1.63-2.51-2.11-3.94c-0.48-1.43-0.72-2.84-0.72-4.22
			c0-1.27,0.37-2.72,1.11-4.34c0.74-1.62,1.7-3.15,2.86-4.61c1.17-1.46,2.49-2.68,3.98-3.66c1.48-0.98,2.97-1.47,4.45-1.47h40.57
			c-1.22,1.8-2.61,3.61-4.18,5.41c-1.56,1.8-3.3,3.61-5.21,5.41h-26.25c-0.58,0-1.09,0.4-1.51,1.19c-0.43,0.79-0.64,1.43-0.64,1.91
			v0.4c0,0.05,0.11,0.17,0.32,0.36c0.21,0.19,0.37,0.33,0.48,0.44c0.21,0.21,0.52,0.41,0.91,0.6c0.4,0.19,0.62,0.28,0.68,0.28h15.11
			c1.7,0,3.15,0.41,4.38,1.23c1.22,0.82,2.21,1.86,2.98,3.1c0.77,1.25,1.34,2.59,1.71,4.02c0.37,1.43,0.56,2.76,0.56,3.98v0.48
			c0,1.38-0.32,2.85-0.95,4.42c-0.64,1.56-1.47,3.01-2.51,4.34c-1.03,1.33-2.23,2.43-3.58,3.3c-1.35,0.88-2.74,1.31-4.18,1.31
			h-40.57c0.26-0.53,0.81-1.38,1.63-2.55c0.82-1.17,1.7-2.35,2.63-3.54c0.93-1.19,1.79-2.25,2.59-3.18c0.8-0.93,1.27-1.39,1.43-1.39
			h27.05c0.8,0,1.26-0.24,1.39-0.72c0.13-0.48,0.2-0.98,0.2-1.51V75.72z"/>
		<path class="st0" d="M337.29,89c0.05-0.21,0.44-0.8,1.15-1.75c0.72-0.95,1.56-2.01,2.55-3.18c0.98-1.17,1.99-2.29,3.02-3.38
			c1.03-1.09,1.92-1.87,2.66-2.35h9.55l7.56-20.68h-15.03v-0.08c0.05-0.21,0.44-0.79,1.15-1.75c0.72-0.95,1.56-2.02,2.55-3.18
			c0.98-1.17,1.99-2.29,3.02-3.38c1.03-1.09,1.92-1.87,2.66-2.35h39.85c-0.37,0.74-0.99,1.71-1.87,2.9
			c-0.88,1.19-1.8,2.37-2.78,3.54c-0.98,1.17-1.94,2.18-2.86,3.02c-0.93,0.85-1.6,1.27-2.03,1.27h-9.39l-7.56,20.68h15.03
			c-0.37,0.74-0.99,1.71-1.87,2.9c-0.87,1.19-1.8,2.37-2.78,3.54c-0.98,1.17-1.94,2.18-2.86,3.02c-0.93,0.85-1.6,1.27-2.03,1.27
			h-39.69V89z"/>
		<path class="st0" d="M443.88,75.08c-1.59,2.76-3.57,5.17-5.93,7.24c-2.36,2.07-5.01,3.71-7.95,4.93
			c-2.94,1.22-5.98,1.83-9.11,1.83h-7.95c-2.92,0-5.62-0.24-8.11-0.72c-2.49-0.48-4.64-1.28-6.44-2.43
			c-1.8-1.14-3.22-2.69-4.26-4.65c-1.03-1.96-1.55-4.43-1.55-7.4c0-0.64,0.03-1.3,0.08-1.99c0.05-0.69,0.13-1.4,0.24-2.15
			c0.42-2.97,1.4-5.83,2.94-8.59c1.54-2.76,3.45-5.18,5.73-7.28c2.28-2.09,4.79-3.78,7.52-5.05c2.73-1.27,5.5-1.91,8.31-1.91h10.5
			c6.42,0,11.28,1.1,14.6,3.3c3.31,2.2,4.97,5.85,4.97,10.94c0,1.59-0.16,3.29-0.48,5.09C446.5,69.38,445.47,72.32,443.88,75.08z
			 M407.76,69.19v0.48c0,0.95,0.19,1.95,0.56,2.98c0.37,1.03,0.88,1.98,1.51,2.82c0.64,0.85,1.38,1.54,2.23,2.07
			c0.85,0.53,1.75,0.8,2.7,0.8h5.25c0.53,0,1.29-0.23,2.27-0.68c0.98-0.45,2-1.05,3.06-1.79c1.06-0.74,2.07-1.58,3.02-2.51
			c0.95-0.93,1.67-1.84,2.15-2.74c0.48-0.74,0.77-1.33,0.88-1.75l0.32-0.8c0.11-0.53,0.16-0.77,0.16-0.72
			c0.05-0.42,0.09-0.86,0.12-1.31c0.03-0.45,0.04-0.91,0.04-1.39c0-0.85-0.08-1.7-0.24-2.55c-0.16-0.85-0.48-1.6-0.95-2.27
			c-0.48-0.66-1.13-1.19-1.95-1.59c-0.82-0.4-1.9-0.6-3.22-0.6h-6.44c-0.85,0-1.76,0.23-2.74,0.68c-0.98,0.45-1.95,1.05-2.9,1.79
			c-0.95,0.74-1.84,1.58-2.66,2.51c-0.82,0.93-1.47,1.84-1.95,2.74c-0.27,0.64-0.5,1.23-0.72,1.79c-0.21,0.56-0.35,1.05-0.4,1.47
			C407.79,68.69,407.76,68.88,407.76,69.19z"/>
		<path class="st0" d="M458.51,46.92h19.25l4.53,23.71l8.67-23.71h15.11l-15.35,42.16h-19.25l-4.45-23.7l-8.59,23.7h-15.27
			L458.51,46.92z"/>
	</g>
</g>
</svg>
