<?xml version="1.0" standalone="no"?>
<!DOCTYPE svg PUBLIC "-//W3C//DTD SVG 20010904//EN"
 "http://www.w3.org/TR/2001/REC-SVG-20010904/DTD/svg10.dtd">
<svg version="1.0" xmlns="http://www.w3.org/2000/svg"
 width="16.000000pt" height="16.000000pt" viewBox="0 0 16.000000 16.000000"
 preserveAspectRatio="xMidYMid meet">
<metadata>
Created by potrace 1.11, written by Peter Selinger 2001-2013
</metadata>
<g transform="translate(0.000000,16.000000) scale(0.002947,-0.002947)"
fill="#000000" stroke="none">
<path d="M2667 5421 c-2 -3 -3 -80 -3 -171 l1 -165 43 0 c36 -1 42 2 43 20 1
36 1 289 0 307 -1 13 -10 17 -41 16 -22 0 -42 -3 -43 -7z"/>
<path d="M2667 5054 c-1 -1 -51 -4 -112 -8 -60 -3 -119 -8 -130 -10 -11 -2
-42 -7 -68 -10 -41 -6 -82 -13 -173 -32 -128 -26 -339 -102 -499 -179 -626
-305 -1088 -883 -1249 -1565 -14 -58 -28 -125 -31 -150 -3 -25 -8 -58 -10 -75
-25 -189 -25 -438 0 -615 60 -429 222 -813 487 -1147 59 -74 259 -280 323
-333 305 -249 622 -406 985 -488 140 -32 170 -36 298 -49 95 -10 348 -9 459 0
67 6 231 33 313 52 403 94 802 320 1109 626 336 335 562 774 646 1249 23 133
30 222 30 405 0 226 -7 284 -61 541 -13 63 -61 213 -100 314 -171 438 -486
823 -894 1093 -120 79 -339 189 -483 242 -93 34 -292 87 -369 99 -21 3 -55 9
-75 12 -21 3 -45 7 -53 9 -31 8 -336 25 -343 19z m323 -139 c228 -40 333 -65
468 -114 315 -114 565 -274 813 -521 254 -254 415 -509 536 -855 13 -38 26
-77 28 -85 2 -8 10 -43 19 -77 134 -516 63 -1116 -187 -1568 -21 -38 -41 -78
-44 -87 -3 -10 -9 -18 -14 -18 -5 0 -9 -5 -9 -11 0 -14 -115 -180 -182 -262
-65 -80 -234 -246 -323 -318 -262 -212 -619 -380 -946 -444 -148 -30 -256 -39
-434 -40 -187 0 -265 7 -435 40 -806 157 -1465 764 -1695 1560 -29 101 -53
208 -61 275 -3 25 -9 74 -14 110 -9 69 -5 427 5 495 3 22 11 65 16 95 6 30 13
69 15 85 3 17 17 71 30 120 210 769 811 1364 1585 1566 46 12 93 23 104 25 11
2 47 8 80 14 33 6 89 13 125 17 36 3 67 7 69 9 6 6 412 -4 451 -11z"/>
<path d="M2375 4699 c-22 -4 -55 -11 -74 -14 -141 -26 -400 -120 -541 -197
-516 -280 -896 -788 -1014 -1358 -30 -141 -40 -234 -41 -360 l0 -75 163 0 162
-1 1 61 c0 33 2 67 3 75 2 8 6 40 10 70 8 70 12 92 37 218 l22 102 222 0 223
0 59 -67 c32 -37 65 -74 73 -83 8 -9 29 -32 45 -51 73 -83 252 -286 268 -304
16 -18 32 -19 208 -20 105 0 192 2 194 5 2 3 -82 121 -186 262 -104 142 -189
259 -189 260 0 2 89 3 197 3 l198 0 1 743 c1 408 1 741 0 741 0 -1 -19 -5 -41
-10z m-285 -476 c1 -70 1 -621 0 -645 0 -17 -27 -18 -415 -18 l-415 0 19 39
c78 153 314 391 527 533 72 48 259 148 277 148 4 0 7 -26 7 -57z"/>
<path d="M2989 4637 c0 -112 0 -1921 0 -1932 1 -7 293 -10 859 -10 758 0 858
1 863 15 7 16 3 174 -6 227 -3 18 -8 56 -11 85 -6 44 -17 101 -50 247 -2 13
-11 36 -19 52 -16 29 -130 123 -202 166 -24 14 -43 26 -43 27 0 1 16 48 35
105 l34 103 -49 79 c-74 119 -133 192 -250 310 -127 129 -202 190 -340 282
-235 155 -509 264 -760 303 -19 3 -41 7 -47 9 -10 3 -13 -15 -14 -68z m379
-374 c175 -69 395 -223 558 -390 93 -95 111 -126 106 -180 l-4 -38 -368 0
-369 0 1 318 c0 174 2 317 5 317 2 0 35 -12 71 -27z m768 -936 c58 -29 125
-94 162 -156 24 -40 72 -161 72 -180 0 -5 -242 -9 -538 -9 l-539 1 -1 183 -1
183 52 3 c29 2 208 2 398 2 l346 -2 49 -25z"/>
<path d="M2725 3533 l-30 -4 2 -98 c1 -96 1 -99 -24 -112 -14 -8 -31 -27 -38
-42 -12 -30 -8 -87 6 -87 5 0 3 -13 -5 -28 -23 -44 -8 -84 42 -111 20 -11 22
-18 19 -81 l-3 -70 33 0 33 0 0 96 c0 55 -4 93 -9 90 -5 -4 -21 -2 -36 4 -38
14 -31 52 13 65 21 6 32 15 32 28 0 12 -5 17 -14 14 -7 -3 -23 1 -35 9 -37 27
-21 74 26 74 23 0 23 1 23 130 0 72 -1 129 -2 128 -2 0 -16 -3 -33 -5z"/>
<path d="M736 2375 c13 -84 63 -264 99 -360 101 -269 251 -502 460 -710 122
-123 142 -140 270 -233 146 -105 459 -257 590 -286 6 -2 28 -8 50 -14 50 -14
177 -39 230 -46 114 -14 151 -17 246 -18 128 0 240 9 339 27 14 3 41 7 60 10
42 7 93 20 180 46 l65 19 0 164 c0 91 -2 167 -5 170 -3 3 -35 -4 -70 -15 -77
-24 -213 -57 -261 -64 -209 -28 -404 -26 -569 5 -96 18 -102 19 -159 35 -374
107 -700 335 -926 650 -63 87 -203 350 -193 361 4 4 876 6 1746 4 l103 0 -2
-74 c-1 -40 1 -78 5 -84 4 -7 65 -10 169 -9 l162 2 0 223 c0 142 -3 226 -10
230 -5 4 -590 7 -1298 7 l-1288 0 7 -40z"/>
<path d="M3535 1987 c-3 -7 -3 -190 -2 -407 l2 -395 225 -1 c157 0 233 3 250
12 32 16 174 159 245 249 122 153 292 436 320 532 l6 22 -521 0 c-400 0 -522
-2 -525 -12z m665 -253 c0 -20 -135 -207 -197 -272 -12 -13 -56 -16 -170 -13
l-43 1 2 145 1 145 203 0 c112 0 204 -3 204 -6z"/>
<path d="M0 2715 l0 -45 170 0 170 0 -3 43 -2 42 -167 3 -168 2 0 -45z"/>
<path d="M5082 2717 l3 -42 165 0 165 0 2 42 3 43 -171 -1 -170 0 3 -42z"/>
<path d="M2669 336 c-1 -6 -2 -80 -3 -165 -1 -145 0 -154 19 -161 10 -4 30 -4
44 -1 l24 7 -1 142 c0 78 -1 152 -1 165 -1 19 -7 22 -41 23 -22 1 -41 -4 -41
-10z"/>
</g>
</svg>
